<svg width="600" height="600" viewBox="0 0 600 600" fill="none" xmlns="http://www.w3.org/2000/svg">
<path d="M300 600C465.685 600 600 465.685 600 300C600 134.315 465.685 0 300 0C134.315 0 0 134.315 0 300C0 465.685 134.315 600 300 600Z" fill="#BE1622"/>
<path d="M488.304 66.4799C528.49 118.783 550.23 182.921 550.128 248.88C550.128 414.564 415.812 548.88 250.128 548.88C181.592 548.98 115.106 525.507 61.8237 482.4C89.8031 519.002 125.85 548.655 167.16 569.051C208.47 589.448 253.929 600.039 300 600C465.684 600 600 465.684 600 300C600.039 255.199 590.025 210.96 570.693 170.545C551.362 130.129 523.207 94.567 488.304 66.4799V66.4799Z" fill="#A6151C"/>
<path d="M384.576 388.02C412.176 410.064 428.16 439.332 437.004 472.896C439.932 484.032 431.364 492.576 420.024 490.656L394.128 486.276C391.584 484.512 390.432 481.884 389.484 479.076C387.444 473.016 385.692 466.848 382.644 461.076C379.834 455.464 374.956 451.162 369.036 449.076C348.828 441.876 328.236 437.076 306.636 436.08C279.446 434.939 252.314 439.433 226.944 449.28C223.646 450.487 220.637 452.371 218.11 454.809C215.582 457.248 213.593 460.188 212.268 463.44C209.868 468.984 207.96 474.696 206.124 480.432C205.539 482.907 204.071 485.083 201.996 486.552C193.392 488.04 184.824 489.888 176.172 490.92C166.812 492.048 159.216 483.72 161.664 473.88C169.932 440.532 185.088 411.036 212.328 388.86C213.305 388.746 214.294 388.934 215.16 389.4C226.716 398.916 241.26 399.876 254.928 403.296C268.2 406.632 281.892 407.58 295.392 407.688C320.708 407.949 345.891 403.999 369.912 396C373.481 394.911 376.761 393.037 379.512 390.516C380.806 389.05 382.625 388.153 384.576 388.02V388.02Z" fill="#1D1D1B"/>
<path d="M201.984 486.552C203.867 477.827 206.683 469.33 210.384 461.208C213.588 453.9 219.228 449.208 226.74 446.436C255.164 435.574 285.682 431.302 315.996 433.944C334.963 435.754 353.586 440.196 371.328 447.144C374.62 448.388 377.617 450.302 380.131 452.764C382.645 455.226 384.62 458.183 385.932 461.448C389.502 469.418 392.244 477.734 394.116 486.264C357.192 481.284 320.124 478.608 282.84 479.712C257.919 480.367 233.058 482.467 208.38 486C206.268 486.324 204.12 486.384 201.984 486.552Z" fill="#FEFEFE"/>
<path d="M384.576 388.02C380.976 393.684 375.828 397.044 369.42 399.024C322.044 413.704 274.672 413.756 227.304 399.18C221.1 397.272 215.988 394.224 212.316 388.86C224.699 377.829 239.394 369.71 255.324 365.1C302.064 351.6 345.42 358.188 384.576 388.02Z" fill="#FEFEFE"/>
<path d="M300.744 497.064C307.892 496.456 315.09 497.205 321.96 499.272C328.284 501.372 331.776 506.472 330.768 511.944C329.568 518.364 325.332 522.204 318.216 521.424C305.58 520.032 293.016 520.488 280.464 521.424C273.264 521.976 269.004 518.172 268.056 511.824C267.204 506.1 270.456 501.024 276.96 499.26C284.713 497.223 292.749 496.481 300.744 497.064V497.064Z" fill="#A6151C"/>
<path d="M504.984 179.052C518.184 197.52 524.772 217.92 523.992 240.828C522.528 283.932 487.788 322.788 445.02 328.584C384.444 336.78 334.536 291.492 336.912 230.424C337.044 227.136 337.764 223.872 338.22 220.608C359.376 209.352 378.672 194.58 402.156 187.74C421.473 181.927 441.331 178.091 461.424 176.292C472.884 175.368 484.308 175.5 495.744 175.428C499.2 175.404 502.8 175.452 504.984 179.052Z" fill="#FEFEFE"/>
<path d="M504.984 179.052C478.272 176.064 451.896 178.584 425.784 184.128C399.084 189.792 374.4 200.112 352.248 216.192C348.084 219.216 343.728 221.676 338.268 220.608C334.286 218.994 331.007 216.017 329.016 212.208C325.596 206.328 321.816 200.676 318.324 194.808C313.848 187.212 315.3 179.748 321.78 175.92C328.02 172.224 334.908 174.36 339.78 181.476C345.612 190.032 345.588 189.984 354.66 184.764C384.66 167.508 417.06 158.112 451.236 154.272C469.241 152.419 487.372 152.118 505.428 153.372C511.524 153.732 516.552 155.964 518.688 162.048C520.44 167.028 519.144 171.648 515.316 175.404C512.4 178.2 508.632 178.464 504.984 179.052Z" fill="#1D1D1B"/>
<path d="M426 230.088C436.821 230.058 447.21 234.327 454.883 241.958C462.556 249.588 466.884 259.953 466.914 270.774C466.944 281.595 462.674 291.985 455.044 299.657C447.414 307.33 437.049 311.658 426.228 311.688C403.968 311.82 385.368 293.34 385.2 270.888C385.032 248.436 403.548 230.172 426 230.088Z" fill="#1D1D1B"/>
<path d="M421.944 250.092C422.064 255.948 414.672 263.904 408.684 264.36C404.208 264.696 401.616 261.9 402.756 257.46C403.404 254.607 404.76 251.963 406.701 249.774C408.641 247.584 411.102 245.919 413.856 244.932C418.428 243.228 421.86 245.568 421.944 250.092Z" fill="#FCFCFC"/>
<path d="M260.616 220.584C269.736 279.864 224.76 331.824 165.456 329.556C129.6 328.188 102 311.256 85.5117 279.276C68.3996 246 71.3636 213.204 91.8957 181.98C92.5437 181.008 93.1797 180.036 93.8277 179.076C95.4597 176.088 98.3636 175.572 101.304 175.476C144.192 174.192 185.748 179.916 224.532 199.476C232.406 203.284 239.866 207.897 246.792 213.24C250.968 216.648 256.224 217.764 260.616 220.584Z" fill="#FEFEFE"/>
<path d="M260.616 220.584C254.916 221.784 250.512 218.952 246.144 215.892C201.12 184.272 150.36 175.596 96.6959 178.62C95.7322 178.719 94.7748 178.872 93.8279 179.076C88.4639 178.416 83.4239 177.18 80.8079 171.684C79.9551 170.036 79.4926 168.213 79.4562 166.358C79.4198 164.502 79.8104 162.663 80.5979 160.983C81.3854 159.302 82.5487 157.825 83.9979 156.666C85.4471 155.506 87.1435 154.696 88.9559 154.296C97.1159 152.304 105.6 152.496 113.904 152.496C155.904 152.496 196.224 160.284 234.036 179.136C239.604 181.908 244.968 185.136 250.26 188.34C252.864 189.936 254.256 189.6 255.792 186.984C257.576 183.754 259.695 180.721 262.116 177.936C264.002 175.937 266.517 174.647 269.241 174.28C271.965 173.913 274.732 174.492 277.08 175.92C281.796 178.692 284.748 184.908 282.612 190.008C278.496 199.896 272.28 208.668 265.992 217.308C264.852 218.868 262.44 219.516 260.616 220.584Z" fill="#1D1D1B"/>
<path d="M172.452 230.076C183.265 230.047 193.652 234.285 201.356 241.871C209.061 249.457 213.461 259.777 213.6 270.588C213.96 292.716 195.504 311.388 172.968 311.688C150.684 312 132.168 293.688 131.952 271.116C131.888 260.305 136.118 249.911 143.711 242.217C151.305 234.522 161.642 230.155 172.452 230.076V230.076Z" fill="#1D1D1B"/>
<path d="M180.636 244.5C188.508 244.296 197.148 253.656 196.236 259.824C195.744 263.352 193.476 264.624 190.044 264.36C184.284 263.844 177.036 256.392 176.844 250.608C176.808 247.056 178.26 244.62 180.636 244.5Z" fill="#FCFCFC"/>
</svg>
