<svg width="90" height="90" viewBox="0 0 90 90" fill="none" xmlns="http://www.w3.org/2000/svg">
<g clip-path="url(#clip0_1601_496)">
<path d="M45 90C69.8528 90 90 69.8528 90 45C90 20.1472 69.8528 0 45 0C20.1472 0 0 20.1472 0 45C0 69.8528 20.1472 90 45 90Z" fill="#3AAA35"/>
<path d="M73.2456 9.97198C79.2736 17.8175 82.5345 27.4381 82.5192 37.332C82.5192 62.1846 62.3718 82.332 37.5192 82.332C27.2388 82.3469 17.2659 78.8261 9.27361 72.36C13.4705 77.8503 18.8775 82.2982 25.074 85.3577C31.2705 88.4173 38.0893 90.0059 45 90C69.8526 90 90 69.8526 90 45C90.006 38.2798 88.5037 31.644 85.604 25.5817C82.7043 19.5194 78.4811 14.1851 73.2456 9.97198Z" fill="#2B7E27"/>
<path d="M45.3906 69.9084C38.0106 69.8292 31.941 67.4982 26.7786 62.847C25.7508 61.9236 25.6032 60.6636 26.388 59.7456C27.1728 58.8276 28.4418 58.7502 29.5074 59.6772C31.527 61.4358 33.6834 62.9748 36.189 63.9396C44.3574 67.086 51.9552 66.0354 58.9824 60.7878C59.5422 60.3684 60.0426 59.868 60.6132 59.4666C61.5834 58.7862 62.7534 58.9266 63.4464 59.7582C64.1394 60.5898 64.1016 61.839 63.225 62.6778C61.9585 63.8912 60.5651 64.9648 59.0688 65.88C54.747 68.526 49.9788 69.8742 45.3906 69.9084Z" fill="#1D1D1B"/>
<path d="M68.445 39.6126C68.4216 43.4772 65.2482 46.647 61.425 46.6326C59.5667 46.6093 57.7911 45.861 56.4767 44.5472C55.1623 43.2335 54.4131 41.4582 54.3888 39.6C54.3762 35.7354 57.6288 32.4972 61.4826 32.5548C63.341 32.57 65.1175 33.3215 66.4226 34.6446C67.7278 35.9676 68.455 37.7542 68.445 39.6126Z" fill="#1D1D1B"/>
<path d="M21.3786 39.573C21.3753 37.7088 22.1126 35.9196 23.4284 34.5991C24.7443 33.2785 26.5308 32.5348 28.395 32.5314C30.2592 32.5281 32.0484 33.2654 33.3689 34.5812C34.6895 35.8971 35.4333 37.6836 35.4366 39.5478C35.4672 43.3872 32.1876 46.6722 28.3662 46.6326C26.5076 46.6099 24.7325 45.8566 23.4249 44.5355C22.1173 43.2144 21.3822 41.4318 21.3786 39.573Z" fill="#1D1D1B"/>
<path d="M63.945 37.9116C63.045 37.836 62.226 37.5786 61.7166 36.765C61.1532 35.865 61.6104 34.965 62.6814 34.9434C63.1792 34.9299 63.6721 35.044 64.1132 35.275C64.5543 35.5059 64.929 35.846 65.2014 36.2628C65.3243 36.4119 65.4002 36.5941 65.4195 36.7864C65.4387 36.9787 65.4004 37.1723 65.3094 37.3428C65.0178 37.8774 64.5066 37.9494 63.945 37.9116Z" fill="#5A5F62"/>
<path d="M30.7674 37.9116C30.159 37.9386 29.4966 37.6002 28.9224 37.0674C28.5102 36.6822 28.3014 36.189 28.4814 35.6418C28.6776 35.046 29.2518 34.938 29.7738 34.9416C30.1695 34.9369 30.5616 35.016 30.9246 35.1736C31.2876 35.3312 31.6131 35.5637 31.8798 35.856C32.2398 36.2412 32.5386 36.6876 32.2884 37.2762C32.0382 37.8648 31.5 37.8936 30.7674 37.9116Z" fill="#5A5E62"/>
</g>
<defs>
<clipPath id="clip0_1601_496">
<rect width="90" height="90" fill="white"/>
</clipPath>
</defs>
</svg>
