<svg width="200" height="200" viewBox="0 0 200 200" fill="none" xmlns="http://www.w3.org/2000/svg">
<g clip-path="url(#clip0_1611_8554)">
<path d="M100 200C155.228 200 200 155.228 200 100C200 44.7715 155.228 0 100 0C44.7715 0 0 44.7715 0 100C0 155.228 44.7715 200 100 200Z" fill="#3AAA35"/>
<path d="M162.768 22.16C176.164 39.5945 183.41 60.9736 183.376 82.96C183.376 138.188 138.604 182.96 83.376 182.96C60.5306 182.993 38.3687 175.169 20.608 160.8C29.9345 173.001 41.9501 182.885 55.7201 189.684C69.49 196.483 84.643 200.013 100 200C155.228 200 200 155.228 200 100C200.013 85.0664 196.675 70.3201 190.231 56.8483C183.787 43.3764 174.402 31.5224 162.768 22.16V22.16Z" fill="#2B7E27"/>
<path d="M100.868 155.352C84.468 155.176 70.98 149.996 59.508 139.66C57.224 137.608 56.896 134.808 58.64 132.768C60.384 130.728 63.204 130.556 65.572 132.616C70.06 136.524 74.852 139.944 80.42 142.088C98.572 149.08 115.456 146.745 131.072 135.084C132.316 134.152 133.428 133.04 134.696 132.148C136.852 130.636 139.452 130.948 140.992 132.796C142.532 134.644 142.448 137.42 140.5 139.284C137.686 141.981 134.589 144.366 131.264 146.4C121.66 152.28 111.064 155.276 100.868 155.352Z" fill="#1D1D1B"/>
<path d="M152.1 88.028C152.048 96.616 144.996 103.66 136.5 103.628C132.371 103.576 128.425 101.913 125.504 98.9938C122.583 96.0744 120.918 92.1294 120.864 88C120.836 79.412 128.064 72.216 136.628 72.344C140.758 72.3778 144.706 74.0478 147.606 76.9879C150.506 79.928 152.122 83.8982 152.1 88.028V88.028Z" fill="#1D1D1B"/>
<path d="M47.508 87.94C47.5005 83.7973 49.1391 79.8214 52.0632 76.8868C54.9872 73.9522 58.9573 72.2994 63.1 72.292C67.2427 72.2846 71.2186 73.9231 74.1532 76.8472C77.0878 79.7713 78.7406 83.7413 78.748 87.884C78.816 96.416 71.528 103.716 63.036 103.628C58.9057 103.578 54.9612 101.903 52.0554 98.9677C49.1496 96.032 47.5161 92.0706 47.508 87.94Z" fill="#1D1D1B"/>
<path d="M142.1 84.248C140.1 84.08 138.28 83.508 137.148 81.7C135.896 79.7 136.912 77.7 139.292 77.652C140.398 77.6219 141.493 77.8756 142.474 78.3889C143.454 78.9021 144.287 79.6578 144.892 80.584C145.165 80.9153 145.334 81.3203 145.377 81.7475C145.419 82.1748 145.334 82.6051 145.132 82.984C144.484 84.172 143.348 84.332 142.1 84.248Z" fill="#5A5F62"/>
<path d="M68.3719 84.248C67.0199 84.308 65.5479 83.556 64.2719 82.372C63.3559 81.516 62.8919 80.42 63.2919 79.204C63.7279 77.88 65.0039 77.64 66.1639 77.648C67.0432 77.6376 67.9147 77.8133 68.7213 78.1635C69.5278 78.5137 70.2512 79.0305 70.8439 79.68C71.6439 80.536 72.308 81.528 71.752 82.836C71.196 84.144 69.9999 84.208 68.3719 84.248Z" fill="#5A5E62"/>
</g>
<defs>
<clipPath id="clip0_1611_8554">
<rect width="200" height="200" fill="white"/>
</clipPath>
</defs>
</svg>
