<svg width="200" height="200" viewBox="0 0 200 200" fill="none" xmlns="http://www.w3.org/2000/svg">
<path d="M100 200C155.228 200 200 155.228 200 100C200 44.7715 155.228 0 100 0C44.7715 0 0 44.7715 0 100C0 155.228 44.7715 200 100 200Z" fill="#BE1622"/>
<path d="M162.768 22.16C176.163 39.5946 183.41 60.9736 183.376 82.96C183.376 138.188 138.604 182.96 83.3759 182.96C60.5305 182.993 38.3686 175.169 20.6079 160.8C29.9344 173.001 41.95 182.885 55.72 189.684C69.4899 196.483 84.6429 200.013 99.9999 200C155.228 200 200 155.228 200 100C200.013 85.0664 196.675 70.3202 190.231 56.8483C183.787 43.3764 174.402 31.5224 162.768 22.16V22.16Z" fill="#A6151C"/>
<path d="M128.192 129.34C137.392 136.688 142.72 146.444 145.668 157.632C146.644 161.344 143.788 164.192 140.008 163.552L131.376 162.092C130.528 161.504 130.144 160.628 129.828 159.692C129.148 157.672 128.564 155.616 127.548 153.692C126.611 151.821 124.985 150.387 123.012 149.692C116.276 147.292 109.412 145.692 102.212 145.36C93.1486 144.98 84.1046 146.478 75.648 149.76C74.5487 150.162 73.5456 150.79 72.7032 151.603C71.8607 152.416 71.1975 153.396 70.756 154.48C69.956 156.328 69.32 158.232 68.708 160.144C68.513 160.969 68.0238 161.694 67.332 162.184C64.464 162.68 61.608 163.296 58.724 163.64C55.604 164.016 53.072 161.24 53.888 157.96C56.644 146.844 61.696 137.012 70.776 129.62C71.1016 129.582 71.4312 129.645 71.72 129.8C75.572 132.972 80.42 133.292 84.976 134.432C89.4 135.544 93.964 135.86 98.464 135.896C106.903 135.983 115.297 134.666 123.304 132C124.494 131.637 125.587 131.012 126.504 130.172C126.935 129.683 127.542 129.384 128.192 129.34V129.34Z" fill="#1D1D1B"/>
<path d="M67.3281 162.184C67.9557 159.276 68.8944 156.443 70.1281 153.736C71.1961 151.3 73.0761 149.736 75.5801 148.812C85.0548 145.191 95.2275 143.767 105.332 144.648C111.655 145.251 117.862 146.732 123.776 149.048C124.873 149.463 125.872 150.101 126.71 150.921C127.548 151.742 128.207 152.728 128.644 153.816C129.834 156.473 130.748 159.245 131.372 162.088C119.064 160.428 106.708 159.536 94.2801 159.904C85.9732 160.122 77.686 160.822 69.4601 162C68.7561 162.108 68.0401 162.128 67.3281 162.184Z" fill="#FEFEFE"/>
<path d="M128.192 129.34C126.992 131.228 125.276 132.348 123.14 133.008C107.348 137.901 91.5576 137.919 75.7682 133.06C73.7002 132.424 71.9962 131.408 70.7722 129.62C74.8997 125.943 79.7982 123.237 85.1082 121.7C100.688 117.2 115.14 119.396 128.192 129.34Z" fill="#FEFEFE"/>
<path d="M100.248 165.688C102.631 165.485 105.03 165.735 107.32 166.424C109.428 167.124 110.592 168.824 110.256 170.648C109.856 172.788 108.444 174.068 106.072 173.808C101.86 173.344 97.6719 173.496 93.4879 173.808C91.0879 173.992 89.6679 172.724 89.3519 170.608C89.0679 168.7 90.1519 167.008 92.3199 166.42C94.9042 165.741 97.583 165.494 100.248 165.688V165.688Z" fill="#A6151C"/>
<path d="M168.328 59.684C172.728 65.84 174.924 72.64 174.664 80.276C174.176 94.644 162.596 107.596 148.34 109.528C128.148 112.26 111.512 97.164 112.304 76.808C112.348 75.712 112.588 74.624 112.74 73.536C119.792 69.784 126.224 64.86 134.052 62.58C140.491 60.6424 147.11 59.3638 153.808 58.764C157.628 58.456 161.436 58.5 165.248 58.476C166.4 58.468 167.6 58.484 168.328 59.684Z" fill="#FEFEFE"/>
<path d="M168.328 59.6841C159.424 58.6881 150.632 59.5281 141.928 61.3761C133.028 63.2641 124.8 66.7041 117.416 72.0641C116.028 73.0721 114.576 73.8921 112.756 73.5361C111.429 72.998 110.336 72.0056 109.672 70.7361C108.532 68.7761 107.272 66.8921 106.108 64.9361C104.616 62.4041 105.1 59.9161 107.26 58.6401C109.34 57.4081 111.636 58.1201 113.26 60.4921C115.204 63.3441 115.196 63.3281 118.22 61.5881C128.22 55.8361 139.02 52.7041 150.412 51.4241C156.414 50.8063 162.457 50.7059 168.476 51.1241C170.508 51.2441 172.184 51.9881 172.896 54.0161C173.48 55.6761 173.048 57.2161 171.772 58.4681C170.8 59.4001 169.544 59.4881 168.328 59.6841Z" fill="#1D1D1B"/>
<path d="M142 76.696C145.607 76.6859 149.07 78.1091 151.628 80.6525C154.185 83.1958 155.628 86.651 155.638 90.258C155.648 93.8649 154.225 97.3281 151.681 99.8858C149.138 102.443 145.683 103.886 142.076 103.896C134.656 103.94 128.456 97.78 128.4 90.296C128.344 82.812 134.516 76.724 142 76.696Z" fill="#1D1D1B"/>
<path d="M140.648 83.3639C140.688 85.3159 138.224 87.9679 136.228 88.1199C134.736 88.2319 133.872 87.2999 134.252 85.8199C134.468 84.8689 134.92 83.9877 135.567 83.2578C136.214 82.5279 137.034 81.9728 137.952 81.6439C139.476 81.0759 140.62 81.8559 140.648 83.3639Z" fill="#FCFCFC"/>
<path d="M86.8719 73.528C89.9119 93.288 74.9199 110.608 55.1519 109.852C43.1999 109.396 33.9999 103.752 28.5039 93.092C22.7999 82 23.7879 71.068 30.6319 60.66C30.8479 60.336 31.0599 60.012 31.2759 59.692C31.8199 58.696 32.7879 58.524 33.7679 58.492C48.0639 58.064 61.9159 59.972 74.8439 66.492C77.4688 67.7614 79.9554 69.2989 82.2639 71.08C83.6559 72.216 85.4079 72.588 86.8719 73.528Z" fill="#FEFEFE"/>
<path d="M86.872 73.5281C84.972 73.9281 83.504 72.9841 82.048 71.9641C67.04 61.4241 50.12 58.5321 32.232 59.5401C31.9107 59.5732 31.5916 59.6239 31.276 59.6921C29.488 59.4721 27.808 59.0601 26.936 57.2281C26.6517 56.6787 26.4975 56.0712 26.4854 55.4527C26.4733 54.8342 26.6035 54.2211 26.866 53.661C27.1285 53.1008 27.5162 52.6084 27.9993 52.222C28.4824 51.8355 29.0478 51.5653 29.652 51.4321C32.372 50.7681 35.2 50.8321 37.968 50.8321C51.968 50.8321 65.408 53.4281 78.012 59.7121C79.868 60.6361 81.656 61.7121 83.42 62.7801C84.288 63.3121 84.752 63.2001 85.264 62.3281C85.8586 61.2514 86.5652 60.2405 87.372 59.3121C88.0007 58.6458 88.8391 58.2156 89.747 58.0933C90.6549 57.971 91.5773 58.164 92.36 58.6401C93.932 59.5641 94.916 61.6361 94.204 63.3361C92.832 66.6321 90.76 69.5561 88.664 72.4361C88.284 72.9561 87.48 73.1721 86.872 73.5281Z" fill="#1D1D1B"/>
<path d="M57.4839 76.6921C61.088 76.6823 64.5503 78.0952 67.1186 80.6238C69.6869 83.1523 71.1535 86.5922 71.1999 90.1961C71.3199 97.572 65.1679 103.796 57.6559 103.896C50.2279 104 44.0559 97.896 43.9839 90.3721C43.9626 86.7685 45.3723 83.3039 47.9035 80.7389C50.4347 78.174 53.8804 76.7185 57.4839 76.6921V76.6921Z" fill="#1D1D1B"/>
<path d="M60.212 81.5C62.836 81.432 65.716 84.552 65.412 86.608C65.248 87.784 64.492 88.208 63.348 88.12C61.428 87.948 59.012 85.464 58.948 83.536C58.936 82.352 59.42 81.54 60.212 81.5Z" fill="#FCFCFC"/>
</svg>
