<svg width="200" height="200" viewBox="0 0 200 200" fill="none" xmlns="http://www.w3.org/2000/svg">
<path d="M100 200C155.228 200 200 155.228 200 100C200 44.7715 155.228 0 100 0C44.7715 0 0 44.7715 0 100C0 155.228 44.7715 200 100 200Z" fill="#F39200"/>
<path d="M162.76 22.16C176.16 39.6 183.4 60.96 183.36 82.96C183.36 138.2 138.6 182.96 83.3601 182.96C60.5201 183 38.3601 175.16 20.6001 160.8C39.5201 185.52 68.8801 200.04 100 200C155.24 200 200 155.24 200 100C200.04 69.76 186.32 41.12 162.76 22.16Z" fill="#D78300"/>
<path d="M101.88 127.16C114.08 127.44 125.16 131.36 133.52 141.24C136.64 144.96 139.04 149.08 139.68 154.04C140.24 158.16 138.16 159.92 134.16 158.76C131.68 158 129.36 156.84 127 155.72C120.96 152.84 114.88 150.16 108.24 148.92C99.2 147.24 90.68 149.04 82.48 152.64C78.52 154.4 74.6 156.32 70.64 158.04C68.64 158.92 66.4 160.04 64.4 158.36C62.32 156.6 63.04 154.12 63.68 151.96C66 143.88 71.28 138.04 78.16 133.6C85.24 129.04 93.16 127.32 101.88 127.16Z" fill="#1D1D1B"/>
<path d="M135.88 102.28C127 102.04 119.76 94.6 120.12 86.08C120.48 77.12 127.8 70.08 136.36 70.4C145.4 70.72 152.32 77.96 152.04 86.8C151.8 95.56 144.52 102.52 135.88 102.28Z" fill="#1D1D1B"/>
<path d="M139.88 75.8C142.28 75.72 145.32 78.56 145.4 80.96C145.44 82.68 144.36 83.68 142.68 83.32C140.6 82.96 138.84 81.56 137.92 79.64C136.96 77.72 137.96 75.88 139.88 75.8Z" fill="#5A5F63"/>
<path d="M63.48 102.28C54.68 102.28 47.52 95.12 47.52 86.32C47.52 77.52 54.68 70.36 63.48 70.36C72.24 70.4 79.48 77.6 79.48 86.32C79.48 95.04 72.24 102.28 63.48 102.28Z" fill="#1D1D1B"/>
<path d="M70.2798 83.4C68.0398 83.32 65.0798 80.72 64.7998 78.56C64.5598 76.88 65.9198 75.64 67.7598 75.84C69.8398 76.08 72.4798 78.6 72.8398 80.68C73.0798 82.2 71.8798 83.44 70.2798 83.4Z" fill="#595E62"/>
</svg>
