<svg width="90" height="90" viewBox="0 0 90 90" fill="none" xmlns="http://www.w3.org/2000/svg">
<g clip-path="url(#clip0_1601_756)">
<path d="M45 90C69.8528 90 90 69.8528 90 45C90 20.1472 69.8528 0 45 0C20.1472 0 0 20.1472 0 45C0 69.8528 20.1472 90 45 90Z" fill="#F39200"/>
<path d="M73.242 9.97198C79.272 17.82 82.53 27.432 82.512 37.332C82.512 62.19 62.37 82.332 37.512 82.332C27.234 82.35 17.262 78.822 9.26999 72.36C17.784 83.484 30.996 90.018 45 90C69.858 90 90 69.858 90 45C90.018 31.392 83.844 18.504 73.242 9.97198Z" fill="#D78300"/>
<path d="M45.846 57.222C51.336 57.348 56.322 59.112 60.084 63.558C61.488 65.232 62.568 67.086 62.856 69.318C63.108 71.172 62.172 71.964 60.372 71.442C59.256 71.1 58.212 70.578 57.15 70.074C54.432 68.778 51.696 67.572 48.708 67.014C44.64 66.258 40.806 67.068 37.116 68.688C35.334 69.48 33.57 70.344 31.788 71.118C30.888 71.514 29.88 72.018 28.98 71.262C28.044 70.47 28.368 69.354 28.656 68.382C29.7 64.746 32.076 62.118 35.172 60.12C38.358 58.068 41.922 57.294 45.846 57.222Z" fill="#1D1D1B"/>
<path d="M61.146 46.026C57.15 45.918 53.892 42.57 54.054 38.736C54.216 34.704 57.51 31.536 61.362 31.68C65.43 31.824 68.544 35.082 68.418 39.06C68.31 43.002 65.034 46.134 61.146 46.026Z" fill="#1D1D1B"/>
<path d="M62.946 34.11C64.026 34.074 65.394 35.352 65.43 36.432C65.448 37.206 64.962 37.656 64.206 37.494C63.27 37.332 62.478 36.702 62.064 35.838C61.632 34.974 62.082 34.146 62.946 34.11Z" fill="#5A5F63"/>
<path d="M28.566 46.026C24.606 46.026 21.384 42.804 21.384 38.844C21.384 34.884 24.606 31.662 28.566 31.662C32.508 31.68 35.766 34.92 35.766 38.844C35.766 42.768 32.508 46.026 28.566 46.026Z" fill="#1D1D1B"/>
<path d="M31.626 37.53C30.618 37.494 29.286 36.324 29.16 35.352C29.052 34.596 29.664 34.038 30.492 34.128C31.428 34.236 32.616 35.37 32.778 36.306C32.886 36.99 32.346 37.548 31.626 37.53Z" fill="#595E62"/>
</g>
<defs>
<clipPath id="clip0_1601_756">
<rect width="90" height="90" fill="white"/>
</clipPath>
</defs>
</svg>
